<svg xmlns="http://www.w3.org/2000/svg" width="32" height="68" viewBox="0 0 32 68">
    <g fill="none" fill-rule="evenodd">
        <g fill="#ff9700" fill-rule="nonzero">
            <g>
                <g>
                    <path d="M66.198 31.602l3.697-2.773-5.187-2.594c.637-.476.734-2.903.292-7.28 0-2.336-5.545-5.801-6.13-5.508-.724.362-1.534.553-2.343.553h-1.055c-.808 0-1.618-.191-2.342-.553-.585-.292-6.13 3.172-6.13 5.508-.38 4.377-.283 6.804.292 7.281l-5.187 2.594 3.697 2.773C42.343 32.914 40 36.234 40 40v10c0 3.305 2.686 5.995 5.99 6l-2.143 15H46v4h20v-4h2.153L66.01 56c3.304-.005 5.99-2.695 5.99-6V40c0-3.766-2.343-7.086-5.802-8.398zM56 15c2.21 0 4-1.79 4-4s-1.79-4-4-4-4 1.79-4 4 1.79 4 4 4zm10.105 14.171l-3.373 2.53 1.006 2.013-6.509 5.063 3.596-7.193c1.339-.855 2.436-2.051 3.168-3.468l2.112 1.055zm-12.102 3.598c.643.146 1.31.231 1.997.231s1.354-.085 1.997-.231L56 36.764l-1.997-3.995zM56 21.291c2.023 0 4.628-.151 6.977-.555C63.771 27.214 59.71 31 56 31c-3.71 0-8.552-5.132-6.977-10.264 2.349.404 4.954.555 6.977.555zm-7.995 6.824c.733 1.417 1.83 2.613 3.168 3.468l3.596 7.193-6.509-5.063 1.006-2.013-3.373-2.53 2.112-1.055zM42.142 51H46v3c-1.858 0-3.411-1.28-3.858-3zm5.848 5.142L47.995 55H48V39h-2v10h-4v-9c0-2.755 1.616-5.202 4.048-6.332l-.309.618L55 41.489V69h-8.847l1.837-12.858zM48 71h7v2h-7v-2zm9 2v-2h7v2h-7zm9-19v-3h3.858c-.447 1.72-2 3-3.858 3zm4-5h-4V39h-2v17l1.847 13H57V41.489l9.261-7.203-.309-.618C68.384 34.798 70 37.245 70 40v9z" transform="translate(-787 -865) translate(366 640) translate(381 218)"/>
                </g>
            </g>
        </g>
    </g>
</svg>
