<svg xmlns="http://www.w3.org/2000/svg" width="32" height="62" viewBox="0 0 32 62">
    <g fill="none" fill-rule="evenodd">
        <g fill="#ff9700" fill-rule="nonzero">
            <g>
                <g>
                    <path d="M59 13c3.234 0 5.877 2.57 5.996 5.775L65 19v2.05c.162-.033.329-.05.5-.05 1.38 0 2.5 1.12 2.5 2.5 0 .576-.195 1.107-.523 1.528C69.46 25.264 71 26.952 71 29c0 1.737-1.107 3.216-2.655 3.768 2.137 1.58 3.551 4.083 3.65 6.916L72 40v10c0 3.234-2.57 5.877-5.775 5.996L66 56v19H46V56c-3.234 0-5.877-2.57-5.996-5.775L40 50V40c0-2.962 1.439-5.593 3.654-7.232C42.107 32.216 41 30.738 41 29c0-2.048 1.539-3.736 3.523-3.972-.328-.42-.523-.952-.523-1.528 0-1.38 1.12-2.5 2.5-2.5.171 0 .339.017.5.05V19c0-3.234 2.57-5.877 5.775-5.996L53 13h6zm-4 58h-7v2h7v-2zm9 0h-7v2h7v-2zm-3.333-31h-9.334L48 42.5V69h7V58h2v11h7V42.5L60.667 40zM46 50h-4c0 2.14 1.687 3.89 3.8 3.995L46 54v-4zm24 0h-4v4c2.206 0 4-1.794 4-4zM49.311 33H49c-3.779 0-6.869 3.01-6.996 6.76L42 40v8h4V38h2v2l2-1.5v-4.811c-.242-.217-.472-.447-.689-.689zM63 33h-.311c-.145.161-.295.317-.451.468l-.238.221V38.5l2 1.5v-2h2v10h4v-8c0-3.86-3.141-7-7-7zm-2 9v2H51v-2h10zm-1-6.95c-1.207.603-2.562.95-4 .95-1.318 0-2.567-.292-3.695-.805L52 35.05V38h8v-2.95zM59 15h-6c-2.14 0-3.89 1.687-3.995 3.8L49 19v8c0 3.86 3.141 7 7 7 3.779 0 6.869-3.01 6.996-6.76L63 27v-8c0-2.206-1.794-4-4-4zm-1 12v2h-8v-2h8zm4 0v2h-2v-2h2zm0-8v7H50v-7h12zm-2 2h-8v3h8v-3z" transform="translate(-936 -725) translate(366 640) translate(530 72)"/>
                </g>
            </g>
        </g>
    </g>
</svg>
