<svg xmlns="http://www.w3.org/2000/svg" width="34" height="62" viewBox="0 0 34 62">
    <g fill="none" fill-rule="evenodd">
        <g fill="#ff9700" fill-rule="nonzero">
            <g>
                <g>
                    <path d="M70.5 51c0 .552-.449 1-1 1-.551 0-1-.448-1-1v-3.142c1.72-.447 3-1.999 3-3.858v-8c0-3.967-2.596-7.404-6.255-8.574L68.464 23h-4.489c.334-.94.525-1.947.525-3h.5c1.93 0 3.5-1.57 3.5-3.5S66.93 13 65 13h-.264c-.998 0-1.895-.555-2.341-1.447C61.607 9.979 60.024 9 58.264 9h-5.528c-1.76 0-3.343.979-4.13 2.553-.447.892-1.344 1.447-2.342 1.447H46c-1.93 0-3.5 1.57-3.5 3.5S44.07 20 46 20h.5c0 1.053.191 2.06.525 3h-4.489l3.22 4.428C42.091 28.594 39.5 32.014 39.5 36v10c0 3.305 2.686 5.994 5.99 6l-2.31 16.172 2.32-1.658V71h11v-5.556c.31.181.644.322 1 .414V68.5c0 1.379 1.122 2.5 2.5 2.5s2.5-1.121 2.5-2.5v-2.64c.455-.118.882-.315 1.268-.583l4.052 2.895-2.32-16.243v-4.485c.31.181.644.322 1 .414V51c0 1.654 1.346 3 3 3s3-1.346 3-3v-2h-2v2zm-15-24c-3.86 0-7-3.141-7-7v-2h2.784l4.319 1.963c-.064.167-.103.347-.103.537 0 .828.672 1.5 1.5 1.5h2c.252 0 .485-.068.694-.177l2.206 1.003C60.811 25.28 58.354 27 55.5 27zm1.81 1.817l-1.81 3.167-1.81-3.167c.585.12 1.19.183 1.81.183.62 0 1.225-.063 1.81-.183zM62.5 20c0 .297-.025.587-.061.874l-2.049-.931C60.169 19.391 59.631 19 59 19h-.684l-2.2-1H62.5v2zM46 18c-.827 0-1.5-.673-1.5-1.5S45.173 15 46 15h.264c1.76 0 3.343-.979 4.13-2.553.447-.892 1.344-1.447 2.342-1.447h5.528c.998 0 1.895.555 2.341 1.447.788 1.574 2.371 2.553 4.131 2.553H65c.827 0 1.5.673 1.5 1.5S65.827 18 65 18h-.5v-2h-18v2H46zm2.022 7c.697 1.039 1.608 1.919 2.665 2.592l4.813 8.424 4.814-8.424c1.056-.672 1.968-1.553 2.665-2.592h1.558l-7.049 9.692L57.999 48h-4.998l.512-13.308L46.464 25h1.558zM41.5 36c0-3.332 2.326-6.156 5.516-6.841l4.472 6.148-.968 25.165-4.7 3.356 1.67-11.686.001-.142h.009V34h-2v12h-4V36zm.556 12H45.5v2c-1.474 0-2.75-.81-3.444-2zM47.5 69v-2h7v2h-7zm9-7v-8h-2v11h-6.88l4.86-3.472L52.924 50h5.152l.443 11.528 3.397 2.426c-.135.029-.275.046-.416.046h-3c-1.103 0-2-.897-2-2zm4 6.5c0 .275-.224.5-.5.5s-.5-.225-.5-.5V66h1v2.5zm4.68-4.672l-4.699-3.356-.968-25.164 4.472-6.149c3.183.686 5.515 3.525 5.515 6.841v5h-4v-7h-2v18l1.68 11.828zM65.5 44v-1h4v1c0 1.103-.897 2-2 2s-2-.897-2-2z" transform="translate(-636 -721) translate(366 640) translate(231 72)"/>
                </g>
            </g>
        </g>
    </g>
</svg>
