<svg xmlns="http://www.w3.org/2000/svg" width="32" height="62" viewBox="0 0 32 62">
    <g fill="none" fill-rule="evenodd">
        <g fill="#FFF" fill-rule="nonzero">
            <g>
                <g>
                    <g>
                        <path d="M23 18h-1.356C23.688 16.349 25 13.826 25 11h3V9h-3V0H7v9H4v2h3c0 2.826 1.312 5.349 3.356 7H9c-4.962 0-9 4.037-9 9v10c0 3.309 2.691 6 6 6v19h20V43c3.309 0 6-2.691 6-6V27c0-4.963-4.038-9-9-9zm-8 27v11H8v-9.382l3.447 1.724L14 43.236V41h4v2.236l2.553 5.105L24 46.618V56h-7V45h-2zm3-6h-4v-3h4v3zm0-5h-4V23.535l2-1.333 2 1.333V34zm-5.168-13.91l1.365.91-1.365.91c-.334.221-.832-.045-.832-.445v-.93c0-.295.24-.535.535-.535.106 0 .209.031.297.09zm6.336 1.82L17.803 21l1.365-.91c.333-.222.832.044.832.445v.93c0 .4-.499.666-.832.445zM23 2v4H9V2h14zM9 8h14v1H9V8zm0 3h14c0 3.859-3.14 7-7 7s-7-3.141-7-7zM2 27c0-3.859 3.14-7 7-7h1.059c-.037.173-.059.351-.059.535v.93c0 1.214.859 2.229 2 2.476v18.823l-1.447 2.895L8 44.382V25H6v12H2V27zm.556 12H6v2c-1.474 0-2.75-.81-3.444-2zM8 60v-2h7v2H8zm9 0v-2h7v2h-7zm9-19v-2h3.444c-.694 1.19-1.97 2-3.444 2zm4-4h-4V25h-2v19.382l-2.553 1.276L20 42.764V23.941c1.141-.247 2-1.262 2-2.476v-.93c0-.184-.022-.362-.059-.535H23c3.86 0 7 3.141 7 7v10z" transform="translate(-638 -871) translate(366 640) translate(232 218) translate(40 13)"/>
                    </g>
                </g>
            </g>
        </g>
    </g>
</svg>
