<?xml version="1.0" encoding="UTF-8"?>
<svg width="22px" height="22px" viewBox="0 0 22 22" version="1.1" xmlns="http://www.w3.org/2000/svg" xmlns:xlink="http://www.w3.org/1999/xlink">
  <title>A89199AC-C2DB-4C18-908A-5A92F268B6C5</title>
  <defs>
    <path d="M9,0.9 C4.52275664,0.9 0.9,4.52307305 0.9,9 C0.9,13.4772434 4.52307305,17.1 9,17.1 C13.4772434,17.1 17.1,13.476927 17.1,9 C17.1,4.52275664 13.476927,0.9 9,0.9 Z" id="path-1"></path>
    <filter x="-18.5%" y="-18.5%" width="137.0%" height="137.0%" filterUnits="objectBoundingBox" id="filter-2">
      <feOffset dx="0" dy="0" in="SourceAlpha" result="shadowOffsetOuter1"></feOffset>
      <feGaussianBlur stdDeviation="1" in="shadowOffsetOuter1" result="shadowBlurOuter1"></feGaussianBlur>
      <feComposite in="shadowBlurOuter1" in2="SourceAlpha" operator="out" result="shadowBlurOuter1"></feComposite>
      <feColorMatrix values="0 0 0 0 0.133333333   0 0 0 0 0.129411765   0 0 0 0 0.180392157  0 0 0 0.25 0" type="matrix" in="shadowBlurOuter1"></feColorMatrix>
    </filter>
  </defs>
  <g id="Web" stroke="none" stroke-width="1" fill="none" fill-rule="evenodd">
    <g id="Web-Legend" transform="translate(-64.000000, -750.000000)">
      <g id="Group" transform="translate(66.000000, 751.000000)">
        <g id="Group" transform="translate(0.000000, 1.000000)">
          <g id="Path">
            <use fill="black" fill-opacity="1" filter="url(#filter-2)" xlink:href="#path-1"></use>
            <path stroke="#22212E" stroke-width="3" d="M9,2.4 C10.8239673,2.4 12.474179,3.13768546 13.6682651,4.33177158 C14.8623073,5.52581377 15.6,7.175972 15.6,9 C15.6,10.8239673 14.8623145,12.474179 13.6682284,13.6682651 C12.4741862,14.8623073 10.824028,15.6 9,15.6 C7.17603269,15.6 5.52582101,14.8623145 4.33173489,13.6682284 C3.1376927,12.4741862 2.4,10.824028 2.4,9 C2.4,7.17603269 3.13768546,5.52582101 4.33177158,4.33173489 C5.52581377,3.1376927 7.175972,2.4 9,2.4 Z" stroke-linejoin="square" fill="#EBA605" fill-rule="evenodd"></path>
          </g>
          <circle id="Oval" fill="#22212E" cx="9" cy="9" r="2.7"></circle>
        </g>
      </g>
    </g>
  </g>
</svg>
