<svg xmlns="http://www.w3.org/2000/svg" width="32" height="62" viewBox="0 0 32 62">
    <g fill="none" fill-rule="evenodd">
        <g fill="#FFF" fill-rule="nonzero">
            <g>
                <g>
                    <g>
                        <path d="M28.889 20.196c.065-.222.111-.453.111-.696 0-1.378-1.121-2.5-2.5-2.5h-3.811C24.121 15.406 25 13.306 25 11v-.332c1.752-.686 3-2.383 3-4.376 0-1.795-.997-3.409-2.603-4.211C22.675.719 19.627 0 16.584 0h-1.168c-3.043 0-6.091.719-8.813 2.081C4.997 2.883 4 4.497 4 6.292c0 1.992 1.248 3.689 3 4.376V11c0 2.306.879 4.406 2.311 6H5.5C4.121 17 3 18.122 3 19.5c0 .245.046.477.112.701C1.151 21.902 0 24.376 0 27v10c0 3.309 2.691 6 6 6v19h20V43c3.309 0 6-2.691 6-6V27c0-2.632-1.147-5.104-3.111-6.804zM27 19.5c0 .276-.225.5-.5.5h-3.113l-.333-1H26.5c.275 0 .5.224.5.5zm-5.223 1.994l-1.942.971 1.068 4.271-3.929 4.49L19.78 20h1.499l.498 1.494zM15 45v11H8V41h16v15h-7V45h-2zM2 35h4v2H2v-2zm8.223-13.506L10.72 20h1.484l2.153 9.329-3.235-2.696 1.043-4.169-1.942-.97zM9.018 11.355c.57.365 1.24.645 1.982.645.89 0 1.558-.238 2.204-.469C13.938 11.27 14.696 11 16 11c1.304 0 2.062.27 2.796.531.646.231 1.314.469 2.204.469.742 0 1.412-.28 1.982-.645C22.795 15.049 19.74 18 16 18s-6.795-2.951-6.982-6.645zM23 8.662C22.592 9.163 21.756 10 21 10c-.544 0-.959-.148-1.533-.353C18.657 9.359 17.649 9 16 9s-2.657.359-3.467.647c-.574.205-.989.353-1.533.353-.756 0-1.594-.838-2-1.338v-.887C10.186 7.497 12.76 7 16 7s5.814.497 7 .775v.887zM17.72 20l-1.8 7.202L14.257 20h3.463zM6 6.292c0-1.033.573-1.961 1.497-2.422C9.943 2.646 12.682 2 15.416 2h1.168c2.734 0 5.473.646 7.919 1.87C25.427 4.331 26 5.259 26 6.292c0 .842-.395 1.587-1 2.084V6.258l-.71-.215C24.149 6 20.79 5 16 5c-4.79 0-8.149 1-8.29 1.043L7 6.258v2.118c-.605-.497-1-1.242-1-2.084zM5.5 19h3.446l-.333 1H5.5c-.275 0-.5-.224-.5-.5s.225-.5.5-.5zm-1.104 2.732c.335.166.706.268 1.104.268h2.446l-.169.506 2.058 1.029-.957 3.831 5.793 4.829-.641 2.563L14.006 39H8V25H6v8H2v-6c0-2.03.885-3.946 2.396-5.268zM2.556 39H6v2c-1.474 0-2.75-.81-3.444-2zM8 60v-2h7v2H8zm9 0v-2h7v2h-7zm9-25h4v2h-4v-2zm0 6v-2h3.444c-.694 1.19-1.97 2-3.444 2zm4-8h-4v-8h-2v14h-8v-3.624l7.097-8.111-.932-3.729 2.058-1.029-.169-.507H26.5c.399 0 .772-.103 1.107-.27C29.118 23.052 30 24.965 30 27v6z" transform="translate(-787 -721) translate(366 640) translate(381 72) translate(40 9)"/>
                    </g>
                </g>
            </g>
        </g>
    </g>
</svg>
