<svg xmlns="http://www.w3.org/2000/svg" width="45" height="62" viewBox="0 0 45 62">
    <g fill="none" fill-rule="evenodd">
        <g fill="#FFF" fill-rule="nonzero">
            <g>
                <g>
                    <g>
                        <g>
                            <g>
                                <path d="M20 0c2.076.167 3.334 2.774 3.833 5.984l.076.54c.139 1.09.193 2.236.166 3.37l-.021.565-.015.282c.26 2.67.841 4.667 1.742 5.992-1.24.166-2.32.194-3.237.085-.243.423-.514.782-.814 1.062l-.135.12H23c4.874 0 8.856 3.895 8.996 8.735L32 27v10c0 3.234-2.57 5.877-5.775 5.996L26 43v19H6V43C2.766 43 .123 40.43.004 37.225L0 37V27c0-4.873 3.894-8.855 8.735-8.996L9 18h1.356c-.469-.379-.9-.803-1.284-1.267H4.72c.32-.173.639-.702.958-1.589l.136-.402c.046-.14.091-.29.136-.445l.137-.49.136-.532.136-.576.136-.62.136-.664.136-.708.128-.708L6 10V7.831c0-2.092.817-4.062 2.303-5.548C9.719.868 11.518.081 13.44.006L13.744 0H20zm-5 58H8v2h7v-2zm9 0h-7v2h7v-2zm-6-17h-4v.55c0 .947-.148 1.879-.44 2.777l-.133.383-1.437 3.832c-.627 1.674-2.063 2.893-3.757 3.3L8 51.894V56h7V45h2v11h7v-4.107c-1.716-.333-3.199-1.494-3.9-3.125l-.09-.225-1.437-3.834c-.332-.886-.522-1.812-.564-2.754L18 41.55V41zm-7.941-21H9c-3.779 0-6.869 3.01-6.996 6.76L2 27v10h4V25h2v24.845c.894-.285 1.647-.94 2.039-1.814l.078-.191 1.437-3.832c.259-.691.406-1.41.439-2.143L12 41.55V23.941c-1.087-.235-1.918-1.167-1.994-2.304L10 21.465v-.93c0-.184.022-.362.059-.535zM23 20h-1.059c.025.115.043.233.052.353l.007.182v.93c0 1.156-.78 2.132-1.839 2.436l-.161.04V41.55c0 .736.115 1.461.342 2.159l.104.297 1.437 3.834c.339.904 1.055 1.6 1.928 1.937l.189.067V25h2v12h4V27c0-3.86-3.141-7-7-7zM6 39H2.556c.657 1.127 1.837 1.914 3.213 1.993L6 41v-2zm23.444 0H26v2c1.474 0 2.75-.81 3.444-2zM16 22.202l-2 1.333V39h4V23.535l-2-1.333zM37 15l3.658 1.829c1.38.69 2.26 2.044 2.336 3.57l.006.219h-2c0-.796-.413-1.516-1.087-1.919l-.149-.081-.764-.382v5.382c0 1.654-1.346 3-3 3s-3-1.346-3-3 1.346-3 3-3c.282 0 .552.046.81.122l.19.062V15zm-1 7.618c-.552 0-1 .449-1 1 0 .551.448 1 1 1s1-.449 1-1c0-.551-.448-1-1-1zM12.535 20c-.265 0-.486.194-.528.448l-.007.087v.93c0 .372.431.627.759.485l.073-.04 1.365-.91-1.365-.91c-.088-.059-.19-.09-.297-.09zm6.706.05l-.073.04-1.365.91 1.365.91c.308.205.761-.009.825-.361l.007-.084v-.93c0-.372-.431-.627-.759-.485zm2.345-14.17l-.093.339-.048.146-.095.256-.083.19c-.015.033-.03.067-.047.1l-.107.21c-.642 1.18-2.138 2.783-5.625 2.875l-.316.004H9v1c0 3.86 3.141 7 7 7 1.5 0 2.933-1.227 3.839-2.214l.256-.287.22-.264.185-.232.246-.332.067-.099c1.125-2.118 1.385-4.975.782-8.572v-.104l-.005-.023-.004.007zM45 0v8.133c0 1.654-1.346 3-3 3s-3-1.346-3-3 1.346-3 3-3c.282 0 .552.046.81.122l.19.062V2.266l-6 .75v6.117c0 1.654-1.346 3-3 3s-3-1.346-3-3 1.346-3 3-3c.282 0 .552.046.81.122l.19.062V1.25L45 0zM34 8.133c-.552 0-1 .449-1 1 0 .551.448 1 1 1s1-.449 1-1c0-.551-.448-1-1-1zm8-1c-.552 0-1 .449-1 1 0 .551.448 1 1 1s1-.449 1-1c0-.551-.448-1-1-1zM20 2h-6.256c-1.502 0-2.915.585-3.977 1.647-1.09 1.09-1.693 2.454-1.76 3.91L8 7.831V8h7.172c3.516-.113 5.125-2.113 4.828-6z" transform="translate(-490 -871) translate(366 640) translate(86 218) translate(26 13) translate(12)"/>
                            </g>
                        </g>
                    </g>
                </g>
            </g>
        </g>
    </g>
</svg>
