<svg xmlns="http://www.w3.org/2000/svg" width="32" height="62" viewBox="0 0 32 62">
    <g fill="none" fill-rule="evenodd">
        <g fill="#FFF" fill-rule="nonzero">
            <g>
                <g>
                    <path d="M56 9c5.969 0 10.843 4.78 10.996 10.712L67 20v7.95c2.871 1.433 4.88 4.347 4.995 7.74L72 36v10c0 3.234-2.57 5.877-5.775 5.996L66 52v19H46V52c-3.234 0-5.877-2.57-5.996-5.775L40 46V36c0-3.421 1.924-6.394 4.741-7.916L45 27.95V20c0-6.065 4.935-11 11-11zm-1 58h-7v2h7v-2zm9 0h-7v2h7v-2zM50 50h-2v8h4v2h-4v5h7v-5h-1v-2h1v-4h2v4h4v2h-4v5h7v-5h-1v-2h1v-8h-2v1h-2v-1h-3v1h-2v-1h-3v1h-2v-1zm-4-4h-4c0 2.14 1.687 3.89 3.8 3.995L46 50v-4zm24 0h-4v4c2.206 0 4-1.794 4-4zm-7-17v12H49V29c-3.779 0-6.869 3.01-6.996 6.76L42 36v8h4V34h2v14h2v-1h2v1h3v-1h2v1h3v-1h2v1h2V34h2v10h4v-8c0-3.86-3.141-7-7-7zm-2 1H51v9h10v-1h-6v-7h6v-1zm-7 5v2h-2v-2h2zm7-2h-4v3h4v-3zm-7-1v2h-2v-2h2zm2-21c-4.874 0-8.856 3.895-8.996 8.735L47 20v7.232c.515-.118 1.046-.196 1.59-.222L49 27h3.136C49.673 25.635 48 23.01 48 20c0-4.411 3.589-8 8-8s8 3.589 8 8c0 2.913-1.567 5.465-3.9 6.864l-.236.136H63c.55 0 1.088.054 1.61.151l.39.081V20c0-4.962-4.037-9-9-9zm0 3c-.497 0-.978.068-1.44.182 1.41.452 2.44 1.76 2.44 3.318 0 1.93-1.57 3.5-3.5 3.5-1.558 0-2.866-1.03-3.318-2.44-.114.462-.182.943-.182 1.44 0 3.309 2.691 6 6 6s6-2.691 6-6-2.691-6-6-6zm-2.5 2c-.827 0-1.5.673-1.5 1.5s.673 1.5 1.5 1.5 1.5-.673 1.5-1.5-.673-1.5-1.5-1.5z" transform="translate(-492 -721) translate(366 640) translate(86 72)"/>
                </g>
            </g>
        </g>
    </g>
</svg>
